<svg width="760" height="740" viewBox="0 0 760 740" fill="none" xmlns="http://www.w3.org/2000/svg">
<path d="M380.003 0C170.161 0 0 169.628 0 378.883C0 546.284 108.882 688.305 259.869 738.404C278.861 741.911 285.833 730.185 285.833 720.178C285.833 711.143 285.481 681.297 285.317 649.638C179.6 672.557 157.292 604.934 157.292 604.934C140.006 561.141 115.1 549.496 115.1 549.496C80.622 525.98 117.699 526.464 117.699 526.464C155.857 529.136 175.95 565.508 175.95 565.508C209.842 623.43 264.847 606.685 286.531 597.004C289.942 572.516 299.79 555.801 310.658 546.34C226.254 536.759 137.527 504.272 137.527 359.094C137.527 317.729 152.371 283.93 176.68 257.397C172.734 247.854 159.727 209.318 180.361 157.13C180.361 157.13 212.271 146.947 284.889 195.967C315.201 187.572 347.709 183.362 380.003 183.218C412.297 183.362 444.83 187.572 475.199 195.967C547.729 146.947 579.595 157.13 579.595 157.13C600.279 209.318 587.266 247.854 583.32 257.397C607.685 283.93 622.429 317.729 622.429 359.094C622.429 504.617 533.532 536.659 448.914 546.039C462.544 557.797 474.689 580.854 474.689 616.203C474.689 666.898 474.249 707.699 474.249 720.178C474.249 730.26 481.089 742.075 500.351 738.354C651.256 688.198 760 546.227 760 378.883C760 169.628 589.864 0 380.003 0ZM142.324 539.727C141.487 541.609 138.516 542.174 135.811 540.881C133.054 539.645 131.506 537.079 132.4 535.191C133.218 533.252 136.194 532.712 138.944 534.011C141.707 535.247 143.28 537.838 142.324 539.727ZM161.015 556.356C159.203 558.032 155.66 557.254 153.257 554.606C150.771 551.964 150.305 548.432 152.143 546.732C154.012 545.057 157.448 545.841 159.939 548.482C162.425 551.155 162.91 554.662 161.015 556.356ZM173.839 577.633C171.511 579.246 167.703 577.734 165.35 574.364C163.022 570.995 163.022 566.955 165.4 565.336C167.76 563.717 171.511 565.173 173.895 568.517C176.217 571.942 176.217 575.983 173.839 577.633ZM195.526 602.275C193.443 604.565 189.007 603.95 185.76 600.825C182.437 597.77 181.512 593.434 183.601 591.144C185.709 588.848 190.171 589.494 193.443 592.594C196.74 595.643 197.747 600.01 195.526 602.275ZM223.554 610.593C222.636 613.561 218.363 614.91 214.059 613.649C209.761 612.35 206.948 608.874 207.816 605.875C208.71 602.889 213.001 601.483 217.337 602.832C221.629 604.125 224.448 607.575 223.554 610.593ZM255.452 614.122C255.559 617.246 251.909 619.838 247.391 619.894C242.848 619.995 239.173 617.466 239.122 614.392C239.122 611.236 242.69 608.67 247.234 608.594C251.752 608.507 255.452 611.016 255.452 614.122ZM286.788 612.924C287.329 615.973 284.189 619.104 279.702 619.939C275.291 620.742 271.207 618.86 270.647 615.835C270.099 612.711 273.296 609.58 277.701 608.771C282.194 607.993 286.215 609.825 286.788 612.924Z" fill="url(#paint0_linear)"/>
<defs>
<linearGradient id="paint0_linear" x1="380" y1="0" x2="380" y2="739.055" gradientUnits="userSpaceOnUse">
<stop stop-color="#EEEEEE"/>
<stop offset="0.869792" stop-color="#E4E4E4" stop-opacity="0.01"/>
<stop offset="1" stop-color="#C7C7C2" stop-opacity="0"/>
</linearGradient>
</defs>
</svg>
